<svg xmlns="http://www.w3.org/2000/svg" width="451" height="35" viewBox="0 0 451 35"><defs><mask id="kuayb" width="2" height="2" x="-1" y="-1"><path fill="#fff" d="M10 10h431v15H10z"/><path d="M441 25H292v-1l-.354.354L279.293 12H10v-1h269l.354-.354.353.354H280v.292l12.354 12.355L292 24h149z"/></mask><filter id="kuaya" width="471" height="55" x="-10" y="-10" filterUnits="userSpaceOnUse"><feOffset in="SourceGraphic" result="FeOffset1030Out"/><feGaussianBlur in="FeOffset1030Out" result="FeGaussianBlur1031Out" stdDeviation="4 4"/></filter></defs><g><g><g filter="url(#kuaya)"><path fill="none" d="M441 25H292v-1l-.354.354L279.293 12H10v-1h269l.354-.354.353.354H280v.292l12.354 12.355L292 24h149z" mask="url(&quot;#kuayb&quot;)"/><path fill="#2e1415" fill-opacity=".25" d="M441 25H292v-1l-.354.354L279.293 12H10v-1h269l.354-.354.353.354H280v.292l12.354 12.355L292 24h149z"/></g><g filter="url(#kuaya)"><path fill="none" d="M441 25H292v-1l-.354.354L279.293 12H10v-1h269l.354-.354.353.354H280v.292l12.354 12.355L292 24h149z" mask="url(&quot;#kuayb&quot;)"/><path fill="#2e1415" fill-opacity=".25" d="M441 25H292v-1l-.354.354L279.293 12H10v-1h269l.354-.354.353.354H280v.292l12.354 12.355L292 24h149z"/></g><path fill="#e7b66a" d="M441 25H292v-1l-.354.354L279.293 12H10v-1h269l.354-.354.353.354H280v.292l12.354 12.355L292 24h149z"/></g></g></svg>